<svg id="Front" xmlns="http://www.w3.org/2000/svg" viewBox="0 0 85.2 170.16"><g id="Design"><g id="Vector_Smart_Object_Image" data-name="Vector Smart Object Image"><path d="M169.94,60.72V38.17c.51-.45.38-1.1.45-1.65A42.6,42.6,0,0,1,205,.71,16.06,16.06,0,0,0,208.8,0h3.84q0,21.21,0,42.41c0,.44-.07.88-.07,1.31q0,30.89,0,61.76,0,11.09,0,22.18l-.1,0-11.4,0c.19-.06.38-.14.57-.18a12.75,12.75,0,0,0,10.82-12.1c.12-2.63,0-5.27.07-7.91,0-1-.36-1.13-1.2-1.11-2.4,0-4.79,0-7.19,0a13,13,0,0,0-12.59,10c-.07.3,0,.65-.39.9-.09-.28-.17-.52-.23-.77a12.94,12.94,0,0,0-13.08-10.16h-7.91V87.84c.41.35.31.88.42,1.32,1.84,7.61,6.51,12.58,14,14.86,3.45,1.06,7,.9,10.58.63,9.26-.71,17.26-9.11,17.56-18.41,0-.8-.15-1.11-1-1.14a19.63,19.63,0,0,0-19.72,15.33c-.17.79-.33,1.58-.55,2.64-1.29-11.12-10.78-19-21.23-17.87V63.6c.42.44.36,1,.47,1.56a21.25,21.25,0,0,0,19.83,16.73c11.81.39,21.65-8.43,22.22-19.87,0-1.05-.18-1.37-1.28-1.33-9,.32-17.39,7.39-19.4,16.39-.2.9-.35,1.81-.53,2.71C189.87,68.77,180.52,60.37,169.94,60.72Zm8.4-18.48a6.49,6.49,0,0,0-2.84-.15,4.56,4.56,0,0,0-.47,8.78A74.33,74.33,0,0,0,184.6,53a3.17,3.17,0,0,0,1,1.13c-1.44,1.35-1.16,2.72.65,3.27.25.07.37.07.37.42,0,2,1.19,2.7,2.88,1.69.73,1.75,2.15,2,3.28.44.21-.28.29-.31.63-.19,1.58.54,2.56-.22,2.48-1.86,0-.21-.18-.38.21-.51,2-.69,2.24-1.79.82-3.25a2.67,2.67,0,0,0,.88-1.09,94.19,94.19,0,0,0,9.55-2.16,4.41,4.41,0,0,0,2.91-2.79c1.23-3.41-1.6-6.63-5.31-6-.79.12-1,0-.69-.73a3.55,3.55,0,0,0,.11-2.23,4.47,4.47,0,0,0-3.4-3.5,4.67,4.67,0,0,0-5.09,2.08c-.38-3.06-2.14-4.7-4.92-4.61-2.5.09-4.14,1.93-4.28,4.81-.27-.34-.53-.7-.83-1a4.54,4.54,0,0,0-7.58,1.7,7.56,7.56,0,0,0,.07,3.66Zm6.88-8.59a1.88,1.88,0,0,0,1.89-1.89,1.93,1.93,0,1,0-3.85.07A1.87,1.87,0,0,0,185.22,33.65Zm-12.84,4.46a1.93,1.93,0,0,0,1.73,2.06,1.86,1.86,0,0,0,2.08-1.67,1.88,1.88,0,0,0-1.75-2.14A2,2,0,0,0,172.38,38.11Zm35.81,2.07A1.84,1.84,0,0,0,210,38.27a1.87,1.87,0,0,0-1.87-1.92,2,2,0,0,0-1.95,2A1.94,1.94,0,0,0,208.19,40.18ZM197.3,33.65a1.87,1.87,0,0,0,1.9-1.88,2,2,0,0,0-1.89-1.93,1.91,1.91,0,0,0-1.94,2A1.85,1.85,0,0,0,197.3,33.65Z" transform="translate(-169.92)" style="fill:#a5c930"/><path d="M212.65,42.43q0-21.19,0-42.41,20.75,0,41.5,0c.82,0,1,.16,1,1q0,20.88,0,41.75H233.86c-.45-.39-1-.23-1.49-.23Q222.52,42.45,212.65,42.43Zm24.77-14.89c1.9,1,3.26.59,4.49-1.34a4.76,4.76,0,0,0,.79-2.84c-.07-1.12-.87-1.65-1.82-2.11,1.87-.86,2.29-2.23,1.39-4.2-1.1-2.39-2.63-3.05-4.86-2.08-.1-.7,0-1.43-.51-2-1.28-1.46-4.83-1.48-6.15,0-.5.54-.3,1.52-.72,1.8s-1.25-.5-2-.25A4.77,4.77,0,0,0,225,18.29a2.38,2.38,0,0,0,1.71,3c-1.86,1.11-2.21,2.24-1.37,4.17,1,2.32,2.41,3,4.79,2.34.36,2.22,1.52,3.06,4.08,3C236.35,30.63,237.28,29.75,237.42,27.54Z" transform="translate(-169.92)" style="fill:#569824"/><path d="M212.64,170.13h-5.76c0-.44-.4-.43-.71-.47a42.69,42.69,0,0,1-35.74-35.52c-.06-.37.08-.85-.49-1v-5.52c3.28,0,6.55,0,9.83,0a2.41,2.41,0,0,0,1.4-.18c.91,0,1.82.13,2.73.14,2.46,0,4.92,0,7.38,0a16.8,16.8,0,0,0,.49,4.74c2.12,9.54,11.28,16.81,20.64,16.4a3.37,3.37,0,0,1,.21,1.63Q212.64,160.29,212.64,170.13Z" transform="translate(-169.92)" style="fill:#569824"/><path d="M191.28,127.66c-2.46,0-4.92,0-7.38,0-.91,0-1.82-.1-2.73-.14a12.88,12.88,0,0,1-10.78-9.42c-.12-.4-.07-.88-.45-1.19V106.31h7.91a12.94,12.94,0,0,1,13.08,10.16c.06.25.14.49.23.77.38-.25.32-.6.39-.9a13,13,0,0,1,12.59-10c2.4,0,4.79,0,7.19,0,.84,0,1.22.16,1.2,1.11-.07,2.64.05,5.28-.07,7.91a12.75,12.75,0,0,1-10.82,12.1c-.19,0-.38.12-.57.18Z" transform="translate(-169.92)" style="fill:#243f0f"/><path d="M212.64,170.13q0-9.85,0-19.7a3.37,3.37,0,0,0-.21-1.63c0-.68,0-1.36,0-2,.24-.32.13-.69.14-1a1.31,1.31,0,0,0,.3-.76,21.15,21.15,0,0,1,11-14.88,25.27,25.27,0,0,1,7.21-2.39l2.67-.06v0q0,11.09,0,22.17a14.07,14.07,0,0,1-.39,3.31c-2.06,8.69-7.47,14.14-16.06,16.46-.33.09-.75,0-.81.53Zm13.42-21.24a3,3,0,0,0-2.87-2.94,2.92,2.92,0,0,0-2.89,2.89,2.83,2.83,0,0,0,2.85,2.91A2.88,2.88,0,0,0,226.06,148.89Zm5.33-10.65a2.82,2.82,0,0,0-2.85-2.9,2.89,2.89,0,1,0,0,5.77A2.78,2.78,0,0,0,231.39,138.24ZM219,156.65a2.87,2.87,0,0,0-3,2.79,3,3,0,0,0,2.86,3,2.93,2.93,0,0,0,3-2.84A2.85,2.85,0,0,0,219,156.65Z" transform="translate(-169.92)" style="fill:#7ab937"/><path d="M233.86,42.72H255.1V85h-5.56c-.54,0-1.11.13-1.59-.27a3.79,3.79,0,0,1,1-3.52c1.24-1.42,1.17-2.73,0-4.2-1.53-1.88-1.53-3,0-4.88a3,3,0,0,0,0-4.22c-1.54-1.91-1.55-3,0-4.88a3,3,0,0,0,.06-4.22c-1.59-2-1.59-3,0-5,1.38-1.71,1.12-3-.83-3.92a10.37,10.37,0,0,1-2.56-1.27c-.91-.84-1.42-.71-2.31,0a20.8,20.8,0,0,1-3,1.51c-1.37.76-1.61,1.76-.81,3.11a7.47,7.47,0,0,0,.66.85,3,3,0,0,1,0,4.41c-1.47,1.77-1.47,2.91,0,4.67,1.32,1.6,1.32,2.89,0,4.5s-1.42,2.89,0,4.58,1.37,2.91,0,4.59-1.4,2.91,0,4.48a3.39,3.39,0,0,1,.79,3.64h-7c0-.47-.05-1-.05-1.43V44.15C233.81,43.67,233.84,43.19,233.86,42.72Z" transform="translate(-169.92)" style="fill:#243f0f"/><path d="M169.94,60.72c10.58-.35,19.93,8,21.31,19.07.18-.9.33-1.81.53-2.71,2-9,10.42-16.07,19.4-16.39,1.1,0,1.33.28,1.28,1.33-.57,11.44-10.41,20.26-22.22,19.87a21.25,21.25,0,0,1-19.83-16.73c-.11-.53,0-1.12-.47-1.56Z" transform="translate(-169.92)" style="fill:#243f0f"/><path d="M169.94,85.2c10.45-1.12,19.94,6.75,21.23,17.87.22-1.06.38-1.85.55-2.64A19.63,19.63,0,0,1,211.44,85.1c.88,0,1.05.34,1,1.14-.3,9.3-8.3,17.7-17.56,18.41-3.55.27-7.13.43-10.58-.63-7.46-2.28-12.13-7.25-14-14.86-.11-.44,0-1-.42-1.32Z" transform="translate(-169.92)" style="fill:#243f0f"/><path d="M233.86,84.94h12.85a1.57,1.57,0,0,0,1.24-.28c.48.4,1.05.26,1.59.27h5.56v21.35H233.82q0-9.72,0-19.46C233.77,86.21,233.83,85.58,233.86,84.94Zm10.48,13.2a2.45,2.45,0,0,0,2.57-2.3,2.48,2.48,0,0,0-2.41-2.59A2.5,2.5,0,0,0,242,95.63,2.47,2.47,0,0,0,244.34,98.14Z" transform="translate(-169.92)" style="fill:#569824"/><path d="M208.8,0A16.06,16.06,0,0,1,205,.71a42.6,42.6,0,0,0-34.59,35.81c-.07.55.06,1.2-.45,1.65q0-18.63,0-37.25c0-.75.17-.92.92-.92Q189.82,0,208.8,0Z" transform="translate(-169.92)" style="fill:#ebf6d2"/><path d="M169.94,133.18c.57.11.43.59.49,1a42.69,42.69,0,0,0,35.74,35.52c.31,0,.66,0,.71.47q-18,0-36.1,0c-.72,0-.86-.14-.86-.86Q170,151.23,169.94,133.18Z" transform="translate(-169.92)" style="fill:#243f0f"/><path d="M249.82,170.13H239a4,4,0,0,1,1.09-2.34c1.34-1.59,1.32-2.84,0-4.47s-1.4-2.92,0-4.59,1.39-2.88,0-4.57-1.38-2.9,0-4.58,1.35-2.88,0-4.48c-1.44-1.77-1.45-2.94,0-4.67s1.32-2.86,0-4.49-1.45-2.93,0-4.66a3.11,3.11,0,0,0,.6-3.64h7.41a3.24,3.24,0,0,0,.62,3.65c1.47,1.69,1.46,2.91.09,4.58s-1.41,2.9,0,4.67c1.29,1.57,1.29,2.83,0,4.41-1.45,1.77-1.46,2.95,0,4.67s1.34,2.87,0,4.5-1.4,2.94,0,4.58,1.4,2.89,0,4.59-1.36,2.9,0,4.58A3.15,3.15,0,0,1,249.82,170.13Z" transform="translate(-169.92)" style="fill:#9fada5"/><path d="M248.15,127.65h-7.41l-6.78,0a.25.25,0,0,0-.19,0v0c0-.76,0-1.52,0-2.28q0-9.52,0-19H255.1v21.35Zm-3.67-16.58a5.91,5.91,0,1,0,5.86,5.92A5.73,5.73,0,0,0,244.48,111.07Z" transform="translate(-169.92)" style="fill:#a5c930"/><path d="M248.15,127.65h6.95q0,20.76,0,41.51c0,.82-.16,1-1,1-1.44-.08-2.88,0-4.32,0a3.15,3.15,0,0,0-1-2.25c-1.4-1.68-1.4-2.93,0-4.58s1.4-2.9,0-4.59-1.35-2.9,0-4.58,1.34-2.88,0-4.5-1.41-2.9,0-4.67c1.29-1.58,1.29-2.84,0-4.41-1.45-1.77-1.46-2.94,0-4.67s1.38-2.89-.09-4.58A3.24,3.24,0,0,1,248.15,127.65Z" transform="translate(-169.92)" style="fill:#243f0f"/><path d="M234,127.67l6.78,0a3.11,3.11,0,0,1-.6,3.64c-1.48,1.73-1.46,2.92,0,4.66s1.32,2.88,0,4.49-1.42,2.9,0,4.67c1.3,1.6,1.29,2.86,0,4.48s-1.38,2.9,0,4.58,1.36,2.89,0,4.57-1.35,2.88,0,4.59,1.35,2.88,0,4.47a4,4,0,0,0-1.09,2.34h-5Z" transform="translate(-169.92)" style="fill:#243f0f"/><path d="M234,127.67l0,42.46H216.48c.06-.5.48-.44.81-.53,8.59-2.32,14-7.77,16.06-16.46a14.07,14.07,0,0,0,.39-3.31q0-11.09,0-22.17A.25.25,0,0,1,234,127.67Z" transform="translate(-169.92)" style="fill:#569824"/><path d="M169.94,116.87c.38.31.33.79.45,1.19a12.88,12.88,0,0,0,10.78,9.42,2.41,2.41,0,0,1-1.4.18c-3.28,0-6.55,0-9.83,0Z" transform="translate(-169.92)" style="fill:#a5c930"/><path d="M233.82,106.3q0,9.53,0,19c0,.76,0,1.52,0,2.28l-2.67.06-2.64-.07c.22-1.1-.51-1.79-1.09-2.54a2.92,2.92,0,0,1,0-4.12c1.54-1.91,1.56-3,.07-4.89-1.27-1.63-1.26-2.8.06-4.39s1.37-2.9.11-4.51c-1.5-1.91-1.5-2.89,0-4.77a3,3,0,0,0,.06-4.23c-1.61-2.07-1.61-2.93,0-5a3.05,3.05,0,0,0,0-4.15c-1.63-2.11-1.63-2.85,0-5.06a3,3,0,0,0,0-4.06c-1.68-2.23-1.68-2.85,0-5,1.32-1.75,1-3-.92-3.93a10.38,10.38,0,0,1-3.33-1.85c-.19-.2-.4-.25-.61,0-.93,1-2.26,1.31-3.43,1.9-1.92,1-2.19,2.23-.84,3.94,1.63,2,1.63,2.89,0,4.93a3,3,0,0,0,0,4.14c1.67,2.14,1.67,2.89,0,5a3,3,0,0,0-.06,4c1.74,2.16,1.75,2.88,0,5.11a3,3,0,0,0,0,4c1.7,2.07,1.7,2.89,0,5a3,3,0,0,0,.09,4.24c1.52,1.79,1.53,2.84,0,4.76-1.3,1.66-1.28,2.85.08,4.5s1.37,2.78,0,4.49a2.73,2.73,0,0,0-.89,2.36l-5.36.06q0-11.1,0-22.18,0-30.89,0-61.76c0-.43,0-.87.07-1.31q9.85,0,19.72.06c.5,0,1-.16,1.49.23,0,.47-.05,1-.05,1.43V83.51c0,.48,0,1,.05,1.43,0,.64-.09,1.27-.09,1.9Q233.79,96.57,233.82,106.3Z" transform="translate(-169.92)" style="fill:#9fada5"/><path d="M212.45,146.76c0,.68,0,1.36,0,2-9.36.41-18.52-6.86-20.64-16.4a16.8,16.8,0,0,1-.49-4.74l9.79,0,11.4,0v18.09Z" transform="translate(-169.92)" style="fill:#ebf6d2"/><path d="M195.87,37.71A4.67,4.67,0,0,1,201,35.63a4.47,4.47,0,0,1,3.4,3.5,3.55,3.55,0,0,1-.11,2.23c-.27.73-.1.85.69.73,3.71-.61,6.54,2.61,5.31,6a4.41,4.41,0,0,1-2.91,2.79,94.19,94.19,0,0,1-9.55,2.16,2.16,2.16,0,0,0-1.46-2.29c-.68-.33-.33-1.85-1.43-2.27a1.5,1.5,0,0,0-1.38,0c-.52.29-.73.05-.81-.45C193.75,44.58,194.54,41.06,195.87,37.71Z" transform="translate(-169.92)" style="fill:#569824"/><path d="M184.6,53A74.33,74.33,0,0,1,175,50.87a4.56,4.56,0,0,1,.47-8.78,6.49,6.49,0,0,1,2.84.15l0,0-.06,0a7.56,7.56,0,0,1-.07-3.66,4.54,4.54,0,0,1,7.58-1.7c.3.31.56.67.83,1a80.11,80.11,0,0,1,3,10.18c-.11.23.22.81-.5.53-1.54-.61-2.5,0-2.63,1.7,0,.34,0,.49-.41.56C184.92,51.09,184.67,52,184.6,53Z" transform="translate(-169.92)" style="fill:#569824"/><path d="M184.6,53c.07-1,.32-1.92,1.5-2.13.37-.07.39-.22.41-.56.13-1.69,1.09-2.31,2.63-1.7.72.28.39-.3.5-.53a2.13,2.13,0,0,1,3.07-.07c.08.5.29.74.81.45a1.5,1.5,0,0,1,1.38,0c1.1.42.75,1.94,1.43,2.27a2.16,2.16,0,0,1,1.46,2.29,2.67,2.67,0,0,1-.88,1.09c1.42,1.46,1.16,2.56-.82,3.25-.39.13-.22.3-.21.51.08,1.64-.9,2.4-2.48,1.86-.34-.12-.42-.09-.63.19-1.13,1.52-2.55,1.31-3.28-.44-1.69,1-2.88.33-2.88-1.69,0-.35-.12-.35-.37-.42-1.81-.55-2.09-1.92-.65-3.27A3.17,3.17,0,0,1,184.6,53Zm6.65,3.39a2.24,2.24,0,0,0,0-4.47,2.28,2.28,0,0,0-2.28,2.3A2.25,2.25,0,0,0,191.25,56.4Z" transform="translate(-169.92)" style="fill:#243f0f"/><path d="M212.47,145.74V127.65l.1,0,5.36-.06h10.52l2.64.07a25.27,25.27,0,0,0-7.21,2.39,21.15,21.15,0,0,0-11,14.88,1.31,1.31,0,0,1-.3.76A.1.1,0,0,0,212.47,145.74Z" transform="translate(-169.92)" style="fill:#569824"/><path d="M192.71,48a2.13,2.13,0,0,0-3.07.07,80.11,80.11,0,0,0-3-10.18c.14-2.88,1.78-4.72,4.28-4.81,2.78-.09,4.54,1.55,4.92,4.61C194.54,41.06,193.75,44.58,192.71,48Z" transform="translate(-169.92)" style="fill:#9fada5"/><path d="M185.22,33.65a1.87,1.87,0,0,1-2-1.82,1.93,1.93,0,1,1,3.85-.07A1.88,1.88,0,0,1,185.22,33.65Z" transform="translate(-169.92)" style="fill:#243f0f"/><path d="M172.38,38.11a2,2,0,0,1,2.06-1.75,1.88,1.88,0,0,1,1.75,2.14,1.86,1.86,0,0,1-2.08,1.67A1.93,1.93,0,0,1,172.38,38.11Z" transform="translate(-169.92)" style="fill:#243f0f"/><path d="M208.19,40.18a1.94,1.94,0,0,1-2-1.84,2,2,0,0,1,1.95-2A1.87,1.87,0,0,1,210,38.27,1.84,1.84,0,0,1,208.19,40.18Z" transform="translate(-169.92)" style="fill:#243f0f"/><path d="M197.3,33.65a1.85,1.85,0,0,1-1.93-1.83,1.91,1.91,0,0,1,1.94-2,2,2,0,0,1,1.89,1.93A1.87,1.87,0,0,1,197.3,33.65Z" transform="translate(-169.92)" style="fill:#243f0f"/><path d="M237.42,27.54c-.14,2.21-1.07,3.09-3.25,3.19-2.56.1-3.72-.74-4.08-3-2.38.66-3.77,0-4.79-2.34-.84-1.93-.49-3.06,1.37-4.17a2.38,2.38,0,0,1-1.71-3A4.77,4.77,0,0,1,228,14.46c.74-.25,1.51.57,2,.25s.22-1.26.72-1.8c1.32-1.45,4.87-1.43,6.15,0,.53.6.41,1.33.51,2,2.23-1,3.76-.31,4.86,2.08.9,2,.48,3.34-1.39,4.2,1,.46,1.75,1,1.82,2.11a4.76,4.76,0,0,1-.79,2.84C240.68,28.13,239.32,28.56,237.42,27.54Zm-3.56-1.8a4.47,4.47,0,1,0-4.52-4.4A4.38,4.38,0,0,0,233.86,25.74Z" transform="translate(-169.92)" style="fill:#9fada5"/><path d="M226.06,148.89a2.88,2.88,0,0,1-2.91,2.86,2.83,2.83,0,0,1-2.85-2.91,2.92,2.92,0,0,1,2.89-2.89A3,3,0,0,1,226.06,148.89Z" transform="translate(-169.92)" style="fill:#243f0f"/><path d="M231.39,138.24a2.78,2.78,0,0,1-2.86,2.87,2.89,2.89,0,1,1,0-5.77A2.82,2.82,0,0,1,231.39,138.24Z" transform="translate(-169.92)" style="fill:#243f0f"/><path d="M219,156.65a2.85,2.85,0,0,1,2.83,2.92,2.93,2.93,0,0,1-3,2.84,3,3,0,0,1-2.86-3A2.87,2.87,0,0,1,219,156.65Z" transform="translate(-169.92)" style="fill:#243f0f"/><path d="M212.47,145.74a.1.1,0,0,1,.12,0c0,.35.1.72-.14,1Z" transform="translate(-169.92)" style="fill:#a5c930"/><path d="M248,84.68a1.57,1.57,0,0,1-1.24.28h-5.87a3.39,3.39,0,0,0-.79-3.64c-1.39-1.57-1.34-2.84,0-4.48s1.39-2.93,0-4.59-1.38-2.88,0-4.58,1.33-2.9,0-4.5c-1.44-1.76-1.44-2.9,0-4.67a3,3,0,0,0,0-4.41,7.47,7.47,0,0,1-.66-.85c-.8-1.35-.56-2.35.81-3.11a20.8,20.8,0,0,0,3-1.51c.89-.72,1.4-.85,2.31,0a10.37,10.37,0,0,0,2.56,1.27c2,1,2.21,2.21.83,3.92-1.58,2-1.58,2.94,0,5a3,3,0,0,1-.06,4.22c-1.52,1.87-1.51,3,0,4.88a3,3,0,0,1,0,4.22c-1.54,1.9-1.54,3,0,4.88,1.19,1.47,1.26,2.78,0,4.2A3.79,3.79,0,0,0,248,84.68Z" transform="translate(-169.92)" style="fill:#7ab937"/><path d="M244.34,98.14A2.47,2.47,0,0,1,242,95.63a2.5,2.5,0,0,1,2.52-2.38,2.48,2.48,0,0,1,2.41,2.59A2.45,2.45,0,0,1,244.34,98.14Z" transform="translate(-169.92)" style="fill:#9fada5"/><path d="M244.48,111.07a5.73,5.73,0,0,1,5.86,5.92,5.81,5.81,0,0,1-5.91,5.9,5.91,5.91,0,1,1,0-11.82Z" transform="translate(-169.92)" style="fill:#569824"/><path d="M228.45,127.62H217.93a2.73,2.73,0,0,1,.89-2.36c1.35-1.71,1.34-2.83,0-4.49s-1.38-2.84-.08-4.5c1.49-1.92,1.48-3,0-4.76a3,3,0,0,1-.09-4.24c1.67-2.13,1.67-3,0-5a3,3,0,0,1,0-4c1.73-2.23,1.72-3,0-5.11a3,3,0,0,1,.06-4c1.67-2.14,1.67-2.89,0-5a3,3,0,0,1,0-4.14c1.63-2,1.63-2.89,0-4.93-1.35-1.71-1.08-3,.84-3.94,1.17-.59,2.5-.89,3.43-1.9.21-.23.42-.18.61,0A10.38,10.38,0,0,0,226.82,71c2,.94,2.24,2.18.92,3.93-1.66,2.19-1.66,2.81,0,5a3,3,0,0,1,0,4.06c-1.66,2.21-1.66,3,0,5.06a3.05,3.05,0,0,1,0,4.15c-1.62,2-1.62,2.89,0,5a3,3,0,0,1-.06,4.23c-1.53,1.88-1.53,2.86,0,4.77,1.26,1.61,1.23,2.9-.11,4.51s-1.33,2.76-.06,4.39c1.49,1.91,1.47,3-.07,4.89a2.92,2.92,0,0,0,0,4.12C227.94,125.83,228.67,126.52,228.45,127.62Z" transform="translate(-169.92)" style="fill:#ebf6d2"/><polygon points="8.41 42.26 8.47 42.29 8.42 42.24 8.41 42.26" style="fill:#a5c930"/><path d="M191.25,56.4A2.25,2.25,0,0,1,189,54.23a2.28,2.28,0,0,1,2.28-2.3,2.24,2.24,0,0,1,0,4.47Z" transform="translate(-169.92)" style="fill:#ebf6d2"/><path d="M233.86,25.74a4.47,4.47,0,1,1-.1-8.93,4.47,4.47,0,1,1,.1,8.93Z" transform="translate(-169.92)" style="fill:#243f0f"/></g></g></svg>