<?xml version="1.0" encoding="UTF-8"?> <!-- Generator: Adobe Illustrator 27.0.0, SVG Export Plug-In . SVG Version: 6.00 Build 0) --> <svg xmlns="http://www.w3.org/2000/svg" xmlns:xlink="http://www.w3.org/1999/xlink" version="1.1" id="Layer_1" x="0px" y="0px" viewBox="0 0 512 227" style="enable-background:new 0 0 512 227;" xml:space="preserve"> <style type="text/css"> .st0{fill:#80298F;} .st1{fill:#0088CF;} .st2{fill:#231F20;} </style> <g> <path class="st0" d="M43,20.6l31.2,47.5l19.3-29.5c11.2-16.9,20.8-23.9,43.9-18L90,92.7l77.5,116.4h-32.2l-61.2-92.1l-33.9,51.7H8 l50-76.1l-47-72H43z"></path> <path class="st0" d="M166.9,184.7c35.1,2.5,39.9-1.7,39.9-30.8c0,11.3-20.8,15.7-30.7,16.3c-10.8,0.6-21.6-2.5-30.1-11.2 c-6.4-6.6-9.5-15.9-9.5-28.4V58.8h26.9c0,14.2-1.1,62.9,1.7,73.1c2.3,8.9,9.1,13.6,16.5,13.6c9.6,0,17.8-6.8,17.8-15.1 c3.6,1.1,6.1,3.8,7.4,7.4V58.8h27.3v100.7c0,33.3-27.8,49.6-51.4,49.6L166.9,184.7z"></path> <path class="st1" d="M297.5,46.1c0-8.3,7-10.6,13.5-8.9V15.5c-4.3-1.3-9.1-2-14.3-1.9c-10.6,0.4-17.2,3.4-21,8.1 c-6.8,8.3-5.7,22.2-5.7,37.1h-22.7v23.5h22.7v86.5h27.5V82.3h6.4c11.7,0,20.8-9.5,20.8-23.5h-27.1V46.1z"></path> <path class="st1" d="M361.2,168.8h-26.7V42c0-13.6,10.4-21.8,26.7-21.6V168.8z"></path> <path class="st1" d="M479.2,142.7c-18.4,32.4-63.8,39-90.7,12.1c-15.3-15.5-20.5-37.3-14.6-57.4c7.6-24.8,48.7-22.9,51.3,1.1 c-8.7-6.2-25.8-0.7-26.1,15.9c0.2,42.4,60,41.9,60-0.5c0-21.8-16.7-34.9-36.4-30.9c-8.3-10-25.8-12.5-38.2-5.1 c11.2-13.5,26.7-21.4,44.3-21.4C473.3,56.5,501.5,103.9,479.2,142.7"></path> <g> <g> <path class="st2" d="M296.5,212.9h-2.8v-15.7c0-1.7,0-3.5-0.7-4.7c-0.2-0.3-1.2-2-3.6-2c-0.9,0-1.9,0.3-2.7,0.7 c-2.7,1.5-2.8,3.8-2.9,5.5v16.3H281v-15.9c0-0.9,0-1.8-0.1-2.7c-0.2-1.2-1.1-3.9-4.3-3.9c-2.1,0-4.2,1.5-5,3.1 c-0.6,1.3-0.6,2.9-0.6,4.5v14.9h-2.8v-24.2h2.8v2.8c1.4-1.3,3.4-3.3,6.7-3.3c2.5,0,4.7,1.1,5.5,3.8c1.2-1.4,3.6-3.8,7.1-3.8 c1.2,0,2.2,0.3,2.8,0.6c3,1.5,3.1,4.7,3.2,6.9V212.9z"></path> <path class="st2" d="M311.3,213.3c-8.5,0-9.8-6.9-9.8-12.3c0-3.3,0.2-12.8,9.8-12.8c9,0,9.4,8,9.5,11.5 C321,204.9,320.4,213.3,311.3,213.3z M311.5,190.5c-6.9,0-6.9,8.3-6.9,10.4c0,4.1,0.7,10.2,7,10.2c6.3,0,6.5-7.5,6.5-11 C317.9,196.8,317.4,190.5,311.5,190.5z"></path> <path class="st2" d="M343.4,212.9h-2.8v-14c0-1.2,0-2.4-0.1-3.6c-0.1-1.1-0.6-4.8-5.1-4.8c-0.7,0-1.7,0.1-3,0.6 c-3.4,1.5-3.6,4.1-3.6,5.6v16.3H326v-24.2h2.8v2.7c1-1,3.4-3.2,7.6-3.2c2.2,0,4.4,0.8,5.7,2.6c1.3,1.8,1.3,4.1,1.3,5.9V212.9z"></path> <path class="st2" d="M353.1,190.8l-0.1,14.8c0,2.8,0.1,3.5,0.5,4.2c0.3,0.5,1.2,1.2,2.7,1.2c1.4,0,2.3-0.4,3.1-0.8v2.3 c-0.8,0.3-2.2,0.8-4.1,0.8c-3.3,0-4.3-1.9-4.5-2.2c-0.5-0.9-0.6-2.1-0.6-5.1l0.2-15.2h-3.7v-2.2h3.8v-5.5l2.9-0.4l-0.1,5.9h4.6 v2.2H353.1z"></path> <path class="st2" d="M379.8,205.6c0,3.6-3,7.7-9,7.7c-1.3,0-2.9-0.1-4.4-0.9c-3.9-1.9-5.2-6.6-5.2-11.2c0-5.8,1.8-13.1,9.9-13.1 c7.3,0,9,6.1,8.8,12.3h-15.7c0,2.5-0.1,10.5,6.7,10.5c2.6,0,5.7-1.4,6-5.4H379.8z M377.1,198.2c-0.1-1.6-0.3-7.6-6-7.6 c-0.8,0-6.1,0-6.8,7.6H377.1z"></path> <path class="st2" d="M387.3,212.9h-2.8v-34.2h2.8V212.9z"></path> <path class="st2" d="M410.7,212.9h-2.8V210c-1.3,1.2-3.7,3.3-7.6,3.3c-1.3,0-2.6-0.2-3.7-0.8c-3.4-1.8-3.5-5.5-3.5-8.3v-15.6h2.9 v13.7c0,4.2,0,8.7,5.5,8.7c2.1,0,3.9-0.8,5-2c1.2-1.4,1.3-2.7,1.4-4.1l0.1-16.4h2.8V212.9z"></path> <path class="st2" d="M436.6,212.9h-3.7l-9.4-13.2l-3.9,3.9v9.3h-2.8v-34.2h2.8v21.7l10.7-11.7h3.6l-8.2,9.1L436.6,212.9z"></path> <path class="st2" d="M454.6,212.9h-1.9c-1.9,0-1.9-0.9-1.8-2.7c-1,1.1-2.9,3.1-7.3,3.1c-1.3,0-3.5-0.1-5.1-2 c-1.1-1.2-1.7-3.1-1.7-4.9c0-2.9,1.5-4.6,2.6-5.4c1.8-1.4,4.5-1.8,7.5-2.2l4.1-0.5v-2.3c0-2.2,0-5.5-4.9-5.5 c-5.8,0-5.8,4.3-5.9,5.9h-2.8c-0.1-6.7,5.6-8.2,9-8.2c2.1,0,4.5,0.5,5.7,1.9c1.5,1.6,1.5,3.9,1.5,5.6v5.7l-0.1,6.1l0,2.1 c0,1.6,0.2,2.2,1.1,2.6V212.9z M450.9,200.4c-1.6,0.1-3.5,0.4-5.5,0.7c-1.6,0.3-5.7,1.1-5.7,5.1c0,2.9,2.1,4.7,4.7,4.7 c1.3,0,2.9-0.5,4-1.2c2.3-1.4,2.4-3.5,2.4-5.1V200.4z"></path> <path class="st2" d="M464.1,201.1c-1.9-0.7-5.2-1.8-5.2-6c0-5.1,4-6.9,7.8-6.9c2.3,0,4.2,0.7,5.4,1.8c1.6,1.5,2.2,3.4,2.2,5.7h-3 c0-0.2,0-0.5,0-0.8c0-1.6-0.7-4.5-5-4.5c-3.1,0-4.7,2-4.7,3.9c0,1,0.5,2,1.2,2.7c0.7,0.6,1.5,0.9,3.9,1.7l1.5,0.5 c1.5,0.5,3.1,1.1,4.3,2.2c1.8,1.6,2.1,3.6,2.1,5c0,1.1-0.2,2.1-0.7,3.1c-0.5,1-1.2,1.8-2.1,2.4c-1.9,1.3-4.1,1.5-5.4,1.5 c-1.1,0-2.3-0.1-3.4-0.4c-2.3-0.7-3.8-2-4.5-4.1c-0.5-1.5-0.5-2.7-0.4-3.5h3c0,1-0.1,2.9,1.3,4.3c0.6,0.6,1.8,1.4,4.4,1.4 c4.1,0,4.9-2.6,4.9-4.2c0-3.1-2.5-3.9-5.1-4.8L464.1,201.1z"></path> <path class="st2" d="M482.9,190.8l-0.1,14.8c0,2.8,0.1,3.5,0.5,4.2c0.3,0.5,1.2,1.2,2.7,1.2c1.4,0,2.3-0.4,3.1-0.8v2.3 c-0.8,0.3-2.2,0.8-4.1,0.8c-3.3,0-4.3-1.9-4.5-2.2c-0.5-0.9-0.6-2.1-0.6-5.1l0.2-15.2h-3.7v-2.2h3.8v-5.5l2.9-0.4l-0.1,5.9h4.6 v2.2H482.9z"></path> </g> </g> <g> <g> <path class="st2" d="M479.9,67.3h-1.6v-16h-5.2V50H485v1.3h-5.1V67.3z"></path> <path class="st2" d="M504,67.3h-1.6l-0.2-14.7c0-0.9,0-1-0.1-2.1c-0.3,1.1-0.4,1.3-0.8,2.1L496,67.3h-1.4l-5.5-15 c-0.3-0.8-0.4-1-0.6-1.8c0,1,0,1.3,0,2l-0.3,14.8h-1.5l0.4-17.3h2.9l4.3,12.2c0.4,1.2,0.6,1.7,1,3.1c0.5-1.5,0.6-1.6,1.1-3.1 l4.4-12.3h2.9L504,67.3z"></path> </g> </g> </g> </svg> 